<svg width="96" height="24" viewBox="0 0 96 24" fill="none" xmlns="http://www.w3.org/2000/svg">
<g clip-path="url(#clip0_6_97)">
<path d="M15.7963 23.2727C15.5249 22.4775 15.2436 21.6921 14.9527 20.9164C14.6618 20.1406 14.3806 19.3455 14.1091 18.5309H5.61454C5.34302 19.3455 5.06181 20.1503 4.7709 20.9455C4.49939 21.7212 4.22787 22.4969 3.95635 23.2727H0.145447C0.901809 21.12 1.61939 19.1321 2.29817 17.3091C2.97697 15.486 3.63635 13.76 4.27635 12.1309C4.93575 10.5018 5.58545 8.95026 6.22545 7.47637C6.86545 6.0024 7.52486 4.54785 8.20362 3.1127H11.6654C12.3442 4.54785 13.0036 6.0024 13.6436 7.47637C14.2836 8.95026 14.9236 10.5018 15.5636 12.1309C16.223 13.76 16.8921 15.486 17.5709 17.3091C18.2691 19.1321 18.9963 21.12 19.7527 23.2727H15.7963ZM9.8618 7.01088C9.41577 8.03877 8.9018 9.28968 8.31998 10.7636C7.75758 12.2375 7.16606 13.8375 6.54544 15.5636H13.1782C12.5576 13.8375 11.9563 12.2279 11.3745 10.7345C10.7927 9.24117 10.2885 8 9.8618 7.01088Z" fill="white"/>
<path d="M27.4209 23.5636C26.3736 23.5442 25.5009 23.4279 24.8027 23.2145C24.1239 23.0012 23.5809 22.7006 23.1736 22.3127C22.7664 21.9055 22.4754 21.4109 22.3009 20.8291C22.1457 20.2279 22.0682 19.5491 22.0682 18.7927V1.27997L25.5882 0.698151V18.1236C25.5882 18.5503 25.6173 18.9091 25.6754 19.2C25.753 19.4909 25.8791 19.743 26.0536 19.9564C26.2282 20.1503 26.4609 20.3055 26.7518 20.4218C27.0621 20.5188 27.45 20.5964 27.9154 20.6545L27.4209 23.5636Z" fill="white"/>
<path d="M34.3118 23.2727H30.7918V8.05817H34.3118V23.2727ZM34.69 3.60723C34.69 4.26663 34.4766 4.79027 34.05 5.17814C33.6233 5.56602 33.1191 5.75996 32.5373 5.75996C31.9361 5.75996 31.4221 5.56602 30.9955 5.17814C30.5688 4.79027 30.3555 4.26663 30.3555 3.60723C30.3555 2.92845 30.5688 2.39511 30.9955 2.00723C31.4221 1.61936 31.9361 1.42542 32.5373 1.42542C33.1191 1.42542 33.6233 1.61936 34.05 2.00723C34.4766 2.39511 34.69 2.92845 34.69 3.60723Z" fill="white"/>
<path d="M42.6134 20.7418C43.5443 20.7418 44.2231 20.6351 44.6498 20.4218C45.0765 20.1891 45.2898 19.8012 45.2898 19.2582C45.2898 18.7539 45.057 18.3369 44.5916 18.0073C44.1455 17.6775 43.3989 17.3188 42.3517 16.9309C41.7117 16.6982 41.1201 16.4557 40.577 16.2036C40.0534 15.9321 39.5977 15.6218 39.2098 15.2727C38.8219 14.9236 38.5116 14.5066 38.2789 14.0218C38.0655 13.5175 37.9589 12.9066 37.9589 12.1891C37.9589 10.7927 38.4728 9.69694 39.5007 8.90181C40.5286 8.08726 41.925 7.67999 43.6898 7.67999C44.5819 7.67999 45.4352 7.76727 46.2498 7.94181C47.0643 8.09694 47.6753 8.25207 48.0825 8.40727L47.4426 11.2582C47.0546 11.0836 46.5601 10.9284 45.9589 10.7927C45.3577 10.6375 44.6595 10.56 43.8643 10.56C43.1468 10.56 42.565 10.686 42.1189 10.9382C41.6728 11.1709 41.4498 11.5393 41.4498 12.0436C41.4498 12.2957 41.4886 12.5188 41.5662 12.7127C41.6631 12.9066 41.8183 13.0909 42.0316 13.2654C42.245 13.4206 42.5261 13.5854 42.8752 13.76C43.2243 13.9151 43.651 14.08 44.1553 14.2545C44.9892 14.5648 45.6971 14.8751 46.2789 15.1854C46.8607 15.4764 47.3359 15.8157 47.7044 16.2036C48.0922 16.5721 48.3735 16.9988 48.5479 17.4836C48.7225 17.9684 48.8098 18.5502 48.8098 19.2291C48.8098 20.6836 48.2668 21.7891 47.1807 22.5454C46.1141 23.2824 44.5819 23.6509 42.5844 23.6509C41.2462 23.6509 40.1698 23.5345 39.3552 23.3018C38.5407 23.0884 37.9686 22.9139 37.6389 22.7782L38.2498 19.84C38.7734 20.0533 39.3941 20.2569 40.1117 20.4509C40.8486 20.6448 41.6825 20.7418 42.6134 20.7418Z" fill="white"/>
<path d="M55.9088 20.7418C56.8397 20.7418 57.5185 20.6351 57.9452 20.4218C58.3719 20.1891 58.5852 19.8012 58.5852 19.2582C58.5852 18.7539 58.3525 18.3369 57.887 18.0073C57.441 17.6775 56.6943 17.3188 55.647 16.9309C55.007 16.6982 54.4155 16.4557 53.8724 16.2036C53.3488 15.9321 52.893 15.6218 52.5052 15.2727C52.1173 14.9236 51.807 14.5066 51.5743 14.0218C51.361 13.5175 51.2543 12.9066 51.2543 12.1891C51.2543 10.7927 51.7682 9.69694 52.7961 8.90181C53.8239 8.08726 55.2203 7.67999 56.9852 7.67999C57.8773 7.67999 58.7306 7.76727 59.5452 7.94181C60.3597 8.09694 60.9706 8.25207 61.3779 8.40727L60.7379 11.2582C60.3501 11.0836 59.8555 10.9284 59.2543 10.7927C58.653 10.6375 57.9549 10.56 57.1597 10.56C56.4421 10.56 55.8603 10.686 55.4143 10.9382C54.9682 11.1709 54.7452 11.5393 54.7452 12.0436C54.7452 12.2957 54.7839 12.5188 54.8615 12.7127C54.9585 12.9066 55.1137 13.0909 55.327 13.2654C55.5403 13.4206 55.8215 13.5854 56.1706 13.76C56.5197 13.9151 56.9464 14.08 57.4506 14.2545C58.2846 14.5648 58.9925 14.8751 59.5743 15.1854C60.1561 15.4764 60.6312 15.8157 60.9997 16.2036C61.3876 16.5721 61.6688 16.9988 61.8434 17.4836C62.0179 17.9684 62.1052 18.5502 62.1052 19.2291C62.1052 20.6836 61.5621 21.7891 60.4761 22.5454C59.4094 23.2824 57.8773 23.6509 55.8797 23.6509C54.5415 23.6509 53.4652 23.5345 52.6506 23.3018C51.8361 23.0884 51.2639 22.9139 50.9343 22.7782L51.5452 19.84C52.0688 20.0533 52.6894 20.2569 53.407 20.4509C54.1439 20.6448 54.9779 20.7418 55.9088 20.7418Z" fill="white"/>
<path d="M79.1534 15.6509C79.1534 16.8533 78.9789 17.9491 78.6298 18.9382C78.2807 19.9273 77.7862 20.7709 77.1462 21.4691C76.5062 22.1673 75.7302 22.7102 74.8189 23.0982C73.9265 23.486 72.9374 23.68 71.8516 23.68C70.7655 23.68 69.7764 23.486 68.8844 23.0982C67.9922 22.7102 67.2261 22.1673 66.5861 21.4691C65.9461 20.7709 65.4419 19.9273 65.0734 18.9382C64.7243 17.9491 64.5498 16.8533 64.5498 15.6509C64.5498 14.4484 64.7243 13.3624 65.0734 12.3927C65.4419 11.4036 65.9461 10.56 66.5861 9.86181C67.2455 9.16363 68.0213 8.63025 68.9134 8.26181C69.8055 7.87388 70.7849 7.67999 71.8516 7.67999C72.9185 7.67999 73.8974 7.87388 74.7898 8.26181C75.7011 8.63025 76.4771 9.16363 77.1171 9.86181C77.7571 10.56 78.2516 11.4036 78.6007 12.3927C78.9694 13.3624 79.1534 14.4484 79.1534 15.6509ZM75.5462 15.6509C75.5462 14.1382 75.2167 12.9454 74.5571 12.0727C73.9171 11.1806 73.0153 10.7345 71.8516 10.7345C70.688 10.7345 69.7764 11.1806 69.117 12.0727C68.4771 12.9454 68.1571 14.1382 68.1571 15.6509C68.1571 17.183 68.4771 18.3951 69.117 19.2873C69.7764 20.1793 70.688 20.6254 71.8516 20.6254C73.0153 20.6254 73.9171 20.1793 74.5571 19.2873C75.2167 18.3951 75.5462 17.183 75.5462 15.6509Z" fill="white"/>
<path d="M82.7797 8.55274C83.4589 8.35877 84.3411 8.17455 85.4269 8.00001C86.5135 7.82546 87.7157 7.73819 89.0342 7.73819C90.2757 7.73819 91.3135 7.91273 92.1469 8.26183C92.9811 8.5915 93.6408 9.06663 94.1251 9.68728C94.6298 10.2884 94.9789 11.0255 95.1724 11.8982C95.3862 12.7515 95.4924 13.6921 95.4924 14.72V23.2727H91.9724V15.2727C91.9724 14.4582 91.9142 13.7697 91.7978 13.2073C91.7011 12.6255 91.5266 12.16 91.2742 11.8109C91.0415 11.4424 90.712 11.1806 90.2851 11.0255C89.8778 10.8509 89.3738 10.7636 88.7724 10.7636C88.3266 10.7636 87.8611 10.7927 87.376 10.8509C86.8917 10.9091 86.5324 10.9575 86.2997 10.9964V23.2727H82.7797V8.55274Z" fill="white"/>
</g>
<defs>
<clipPath id="clip0_6_97">
<rect width="96" height="24" fill="white"/>
</clipPath>
</defs>
</svg>
