<svg width="132" height="33" viewBox="0 0 132 33" fill="none" xmlns="http://www.w3.org/2000/svg">
<path d="M21.72 32C21.3467 30.9066 20.96 29.8266 20.56 28.76C20.16 27.6933 19.7733 26.6 19.4 25.48H7.72001C7.34668 26.6 6.96001 27.7066 6.56001 28.8C6.18668 29.8666 5.81335 30.9333 5.44001 32H0.200012C1.24001 29.04 2.22668 26.3066 3.16001 23.8C4.09335 21.2933 5.00001 18.92 5.88001 16.68C6.78668 14.44 7.68001 12.3066 8.56001 10.28C9.44001 8.25329 10.3467 6.25329 11.28 4.27996H16.04C16.9733 6.25329 17.88 8.25329 18.76 10.28C19.64 12.3066 20.52 14.44 21.4 16.68C22.3067 18.92 23.2267 21.2933 24.16 23.8C25.12 26.3066 26.12 29.04 27.16 32H21.72ZM13.56 9.63996C12.9467 11.0533 12.24 12.7733 11.44 14.8C10.6667 16.8266 9.85335 19.0266 9.00001 21.4H18.12C17.2667 19.0266 16.44 16.8133 15.64 14.76C14.84 12.7066 14.1467 11 13.56 9.63996Z" fill="#141414"/>
<path d="M37.7038 32.4C36.2638 32.3733 35.0638 32.2133 34.1038 31.92C33.1704 31.6266 32.4238 31.2133 31.8638 30.68C31.3038 30.12 30.9038 29.44 30.6638 28.64C30.4504 27.8133 30.3438 26.88 30.3438 25.84V1.75996L35.1838 0.959961V24.92C35.1838 25.5066 35.2238 26 35.3038 26.4C35.4104 26.8 35.5838 27.1466 35.8238 27.44C36.0638 27.7066 36.3838 27.92 36.7838 28.08C37.2104 28.2133 37.7438 28.32 38.3838 28.4L37.7038 32.4Z" fill="#141414"/>
<path d="M47.1788 32H42.3388V11.08H47.1788V32ZM47.6988 4.95996C47.6988 5.86663 47.4054 6.58663 46.8188 7.11996C46.2321 7.65329 45.5388 7.91996 44.7388 7.91996C43.9121 7.91996 43.2054 7.65329 42.6188 7.11996C42.0321 6.58663 41.7388 5.86663 41.7388 4.95996C41.7388 4.02663 42.0321 3.29329 42.6188 2.75996C43.2054 2.22663 43.9121 1.95996 44.7388 1.95996C45.5388 1.95996 46.2321 2.22663 46.8188 2.75996C47.4054 3.29329 47.6988 4.02663 47.6988 4.95996Z" fill="#141414"/>
<path d="M58.5934 28.52C59.8734 28.52 60.8068 28.3733 61.3935 28.08C61.9801 27.76 62.2734 27.2266 62.2734 26.48C62.2734 25.7866 61.9534 25.2133 61.3134 24.76C60.7001 24.3066 59.6735 23.8133 58.2335 23.28C57.3535 22.96 56.5401 22.6266 55.7934 22.28C55.0734 21.9066 54.4468 21.48 53.9134 21C53.3801 20.52 52.9534 19.9466 52.6334 19.28C52.3401 18.5866 52.1935 17.7466 52.1935 16.76C52.1935 14.84 52.9001 13.3333 54.3134 12.24C55.7268 11.12 57.6468 10.56 60.0734 10.56C61.3001 10.56 62.4734 10.68 63.5934 10.92C64.7134 11.1333 65.5535 11.3466 66.1134 11.56L65.2335 15.48C64.7001 15.24 64.0201 15.0266 63.1935 14.84C62.3668 14.6266 61.4068 14.52 60.3134 14.52C59.3268 14.52 58.5268 14.6933 57.9135 15.04C57.3001 15.36 56.9935 15.8666 56.9935 16.56C56.9935 16.9066 57.0468 17.2133 57.1535 17.48C57.2868 17.7466 57.5001 18 57.7934 18.24C58.0868 18.4533 58.4734 18.68 58.9534 18.92C59.4334 19.1333 60.0201 19.36 60.7135 19.6C61.8601 20.0266 62.8335 20.4533 63.6334 20.88C64.4334 21.28 65.0868 21.7466 65.5935 22.28C66.1268 22.7866 66.5135 23.3733 66.7534 24.04C66.9934 24.7066 67.1134 25.5066 67.1134 26.44C67.1134 28.44 66.3668 29.96 64.8735 31C63.4068 32.0133 61.3001 32.52 58.5535 32.52C56.7135 32.52 55.2334 32.36 54.1134 32.04C52.9935 31.7466 52.2068 31.5066 51.7534 31.32L52.5934 27.28C53.3134 27.5733 54.1668 27.8533 55.1535 28.12C56.1668 28.3866 57.3134 28.52 58.5934 28.52Z" fill="#141414"/>
<path d="M76.8747 28.52C78.1547 28.52 79.088 28.3733 79.6747 28.08C80.2614 27.76 80.5547 27.2266 80.5547 26.48C80.5547 25.7866 80.2347 25.2133 79.5947 24.76C78.9814 24.3066 77.9547 23.8133 76.5147 23.28C75.6347 22.96 74.8214 22.6266 74.0747 22.28C73.3547 21.9066 72.728 21.48 72.1947 21C71.6614 20.52 71.2347 19.9466 70.9147 19.28C70.6214 18.5866 70.4747 17.7466 70.4747 16.76C70.4747 14.84 71.1814 13.3333 72.5947 12.24C74.008 11.12 75.928 10.56 78.3547 10.56C79.5814 10.56 80.7547 10.68 81.8747 10.92C82.9947 11.1333 83.8347 11.3466 84.3947 11.56L83.5147 15.48C82.9814 15.24 82.3014 15.0266 81.4747 14.84C80.648 14.6266 79.688 14.52 78.5947 14.52C77.608 14.52 76.808 14.6933 76.1947 15.04C75.5814 15.36 75.2747 15.8666 75.2747 16.56C75.2747 16.9066 75.328 17.2133 75.4347 17.48C75.568 17.7466 75.7814 18 76.0747 18.24C76.368 18.4533 76.7547 18.68 77.2347 18.92C77.7147 19.1333 78.3014 19.36 78.9947 19.6C80.1414 20.0266 81.1147 20.4533 81.9147 20.88C82.7147 21.28 83.368 21.7466 83.8747 22.28C84.408 22.7866 84.7947 23.3733 85.0347 24.04C85.2747 24.7066 85.3947 25.5066 85.3947 26.44C85.3947 28.44 84.648 29.96 83.1547 31C81.688 32.0133 79.5814 32.52 76.8347 32.52C74.9947 32.52 73.5147 32.36 72.3947 32.04C71.2747 31.7466 70.488 31.5066 70.0347 31.32L70.8747 27.28C71.5947 27.5733 72.448 27.8533 73.4347 28.12C74.448 28.3866 75.5947 28.52 76.8747 28.52Z" fill="#141414"/>
<path d="M108.836 21.52C108.836 23.1733 108.596 24.68 108.116 26.04C107.636 27.4 106.956 28.56 106.076 29.52C105.196 30.48 104.129 31.2266 102.876 31.76C101.649 32.2933 100.289 32.56 98.796 32.56C97.3026 32.56 95.9426 32.2933 94.716 31.76C93.4893 31.2266 92.4359 30.48 91.5559 29.52C90.6759 28.56 89.9826 27.4 89.476 26.04C88.9959 24.68 88.756 23.1733 88.756 21.52C88.756 19.8666 88.9959 18.3733 89.476 17.04C89.9826 15.68 90.6759 14.52 91.5559 13.56C92.4626 12.6 93.5293 11.8666 94.756 11.36C95.9826 10.8266 97.3293 10.56 98.796 10.56C100.263 10.56 101.609 10.8266 102.836 11.36C104.089 11.8666 105.156 12.6 106.036 13.56C106.916 14.52 107.596 15.68 108.076 17.04C108.583 18.3733 108.836 19.8666 108.836 21.52ZM103.876 21.52C103.876 19.44 103.423 17.8 102.516 16.6C101.636 15.3733 100.396 14.76 98.796 14.76C97.196 14.76 95.9426 15.3733 95.0359 16.6C94.156 17.8 93.716 19.44 93.716 21.52C93.716 23.6266 94.156 25.2933 95.0359 26.52C95.9426 27.7466 97.196 28.36 98.796 28.36C100.396 28.36 101.636 27.7466 102.516 26.52C103.423 25.2933 103.876 23.6266 103.876 21.52Z" fill="#141414"/>
<path d="M113.822 11.76C114.756 11.4933 115.969 11.24 117.462 11C118.956 10.76 120.609 10.64 122.422 10.64C124.129 10.64 125.556 10.88 126.702 11.36C127.849 11.8133 128.756 12.4666 129.422 13.32C130.116 14.1466 130.596 15.16 130.862 16.36C131.156 17.5333 131.302 18.8266 131.302 20.24V32H126.462V21C126.462 19.88 126.382 18.9333 126.222 18.16C126.089 17.36 125.849 16.72 125.502 16.24C125.182 15.7333 124.729 15.3733 124.142 15.16C123.582 14.92 122.889 14.8 122.062 14.8C121.449 14.8 120.809 14.84 120.142 14.92C119.476 15 118.982 15.0666 118.662 15.12V32H113.822V11.76Z" fill="#141414"/>
</svg>
